<svg width="250" height="193" viewBox="0 0 250 193" fill="none" xmlns="http://www.w3.org/2000/svg">
<path d="M134.643 179.714C130.357 183 144.786 195.143 109.357 182.357C74 169.571 59.5714 125 52.3571 100.429C45.1429 75.8572 64.5 42.4286 77.2857 32.9286C90.0714 23.4286 113.643 19.5 116.286 19.1429C118.857 18.8572 122.5 17.2143 128.714 11C134.929 4.78573 154.571 -1.7857 168.714 1.14288C182.786 4.07145 217.857 37.5 241.071 84.7143C264.357 131.857 232.929 165.643 227.357 165.643C221.786 165.643 189.643 144 186.714 141.357C183.786 138.786 176.571 138.071 171.286 136.143C166.071 134.143 153.929 119.786 153.929 119.786C155.929 155.786 138.857 176.429 134.643 179.714Z" fill="#EAB363"/>
<path d="M120.857 184.286C113.286 184.286 93.6429 170.571 72.7143 141.714C51.7143 112.857 57.6429 72.5715 57.6429 72.5715C53.7143 133.857 125.143 181.357 125.143 181.357C125.143 181.357 128.357 184.286 120.857 184.286Z" fill="#8C5E28"/>
<path d="M171.286 136.143C166.071 134.143 153.929 119.786 153.929 119.786C153.929 119.786 148.357 60.7858 153.929 34.9286C159.5 9.00004 162.429 8.71433 166.357 17.2143C169.929 24.8572 171.071 107.643 183.429 139.571C179.929 138.286 175.071 137.571 171.286 136.143Z" fill="#E2942D"/>
<path d="M115.286 21.1429C115.286 21.1429 104.143 30.2857 101.857 31C99.5714 31.6429 73.6428 45.0715 66.5 59.1429C59.2857 73.2143 63.8571 51.6429 71.3571 44.0715C78.9286 36.5715 97.5714 23.0715 115.286 21.1429Z" fill="#8C5E28"/>
<path d="M108.214 168.071C64.0714 192 11.7857 192.214 11.7857 192.214C17.6429 177.429 0.714287 152.357 0.714287 152.357C49.3571 157.5 81.3571 139.571 81.3571 139.571C82.5 141.071 108.214 168.071 108.214 168.071Z" fill="#E6E6E6"/>
<path opacity="0.1" d="M108.214 168.071C94.7143 175.357 80.5 180.429 67.2143 184C62.3571 166.643 51.0714 156.786 42 151.5C66.6429 147.786 81.3571 139.571 81.3571 139.571C82.5 141.071 108.214 168.071 108.214 168.071Z" fill="black"/>
<path d="M134.357 27.1429C127.429 40.3572 109 32.3572 113.143 32.1429C117.286 31.9286 129.714 14.8572 138 9.14286C146.357 3.42858 168.714 1.14286 171.214 4.71429C173.786 8.28572 166.643 8.85715 158.357 9.14286C150 9.35715 144.5 51.2857 144.5 51.2857C129.286 43.4286 141.286 13.9286 134.357 27.1429Z" fill="#F4CD9A"/>
</svg>
